<svg width="180" height="180" viewBox="0 0 180 180" fill="none" xmlns="http://www.w3.org/2000/svg">
  <!-- Apple shape with gradient -->
  <defs>
    <linearGradient id="appleGradient" x1="0%" y1="0%" x2="0%" y2="100%">
      <stop offset="0%" style="stop-color:#4ade80;stop-opacity:1" />
      <stop offset="100%" style="stop-color:#16a34a;stop-opacity:1" />
    </linearGradient>
  </defs>
  
  <!-- Apple body -->
  <path d="M90 10C70 10 50 25 50 45C50 65 60 85 70 100C80 115 90 130 90 130C90 130 100 115 110 100C120 85 130 65 130 45C130 25 110 10 90 10Z" fill="url(#appleGradient)"/>
  
  <!-- Apple stem and leaf -->
  <rect x="85" y="5" width="10" height="15" fill="#16a34a"/>
  <path d="M95 5C95 5 100 0 105 5C110 10 105 15 100 10C95 5 95 5 95 5Z" fill="#4ade80"/>
  
  <!-- DNA helix inside apple -->
  <path d="M70 40C70 40 75 45 80 40C85 35 90 40 95 35C100 30 105 35 110 30" stroke="white" stroke-width="6" fill="none" stroke-linecap="round"/>
  <path d="M70 50C70 50 75 55 80 50C85 45 90 50 95 45C100 40 105 45 110 40" stroke="white" stroke-width="6" fill="none" stroke-linecap="round"/>
  <path d="M70 60C70 60 75 65 80 60C85 55 90 60 95 55C100 50 105 55 110 50" stroke="white" stroke-width="6" fill="none" stroke-linecap="round"/>
  <path d="M70 70C70 70 75 75 80 70C85 65 90 70 95 65C100 60 105 65 110 60" stroke="white" stroke-width="6" fill="none" stroke-linecap="round"/>
  <path d="M70 80C70 80 75 85 80 80C85 75 90 80 95 75C100 70 105 75 110 70" stroke="white" stroke-width="6" fill="none" stroke-linecap="round"/>
  <path d="M70 90C70 90 75 95 80 90C85 85 90 90 95 85C100 80 105 85 110 80" stroke="white" stroke-width="6" fill="none" stroke-linecap="round"/>
</svg>
