<svg width="32" height="32" viewBox="0 0 32 32" fill="none" xmlns="http://www.w3.org/2000/svg">
  <!-- Apple shape with gradient -->
  <defs>
    <linearGradient id="appleGradient" x1="0%" y1="0%" x2="0%" y2="100%">
      <stop offset="0%" style="stop-color:#4ade80;stop-opacity:1" />
      <stop offset="100%" style="stop-color:#16a34a;stop-opacity:1" />
    </linearGradient>
  </defs>
  
  <!-- Apple body -->
  <path d="M16 2C12 2 8 5 8 9C8 13 10 16 12 18C14 20 16 22 16 22C16 22 18 20 20 18C22 16 24 13 24 9C24 5 20 2 16 2Z" fill="url(#appleGradient)"/>
  
  <!-- Apple stem and leaf -->
  <rect x="15" y="1" width="2" height="3" fill="#16a34a"/>
  <path d="M17 1C17 1 18 0 19 1C20 2 19 3 18 2C17 1 17 1 17 1Z" fill="#4ade80"/>
  
  <!-- DNA helix inside apple -->
  <path d="M12 8C12 8 13 9 14 8C15 7 16 8 17 7C18 6 19 7 20 6" stroke="white" stroke-width="1.5" fill="none" stroke-linecap="round"/>
  <path d="M12 10C12 10 13 11 14 10C15 9 16 10 17 9C18 8 19 9 20 8" stroke="white" stroke-width="1.5" fill="none" stroke-linecap="round"/>
  <path d="M12 12C12 12 13 13 14 12C15 11 16 12 17 11C18 10 19 11 20 10" stroke="white" stroke-width="1.5" fill="none" stroke-linecap="round"/>
  <path d="M12 14C12 14 13 15 14 14C15 13 16 14 17 13C18 12 19 13 20 12" stroke="white" stroke-width="1.5" fill="none" stroke-linecap="round"/>
</svg>
