<?xml version="1.0" encoding="UTF-8"?>
<svg width="1024" height="1024" viewBox="0 0 1024 1024" xmlns="http://www.w3.org/2000/svg">
  <g fill="none" fill-rule="evenodd">
    <circle fill="#4CAF50" cx="512" cy="512" r="512"/>
    <g transform="translate(256, 256)" fill="#FFFFFF">
      <path d="M256 0c141.385 0 256 114.615 256 256S397.385 512 256 512 0 397.385 0 256 114.615 0 256 0zm0 64c-106.039 0-192 85.961-192 192s85.961 192 192 192 192-85.961 192-192S362.039 64 256 64z"/>
      <path d="M256 128c70.692 0 128 57.308 128 128s-57.308 128-128 128-128-57.308-128-128 57.308-128 128-128zm0 32c-53.019 0-96 42.981-96 96s42.981 96 96 96 96-42.981 96-96-42.981-96-96-96z"/>
      <rect x="240" y="64" width="32" height="384" rx="16"/>
      <rect transform="rotate(60 256 256)" x="240" y="64" width="32" height="384" rx="16"/>
      <rect transform="rotate(-60 256 256)" x="240" y="64" width="32" height="384" rx="16"/>
    </g>
  </g>
</svg>
