<svg width="512" height="512" viewBox="0 0 512 512" fill="none" xmlns="http://www.w3.org/2000/svg">
  <!-- Apple shape with gradient -->
  <defs>
    <linearGradient id="appleGradient" x1="0%" y1="0%" x2="0%" y2="100%">
      <stop offset="0%" style="stop-color:#4ade80;stop-opacity:1" />
      <stop offset="100%" style="stop-color:#16a34a;stop-opacity:1" />
    </linearGradient>
  </defs>
  
  <!-- Apple body -->
  <path d="M256 30C200 30 140 70 140 130C140 190 180 250 220 290C260 330 256 370 256 370C256 370 252 330 292 290C332 250 372 190 372 130C372 70 312 30 256 30Z" fill="url(#appleGradient)"/>
  
  <!-- Apple stem and leaf -->
  <rect x="240" y="20" width="32" height="48" fill="#16a34a"/>
  <path d="M272 20C272 20 288 0 304 20C320 40 304 60 288 40C272 20 272 20 272 20Z" fill="#4ade80"/>
  
  <!-- DNA helix inside apple -->
  <path d="M200 100C200 100 220 120 240 100C260 80 280 100 300 80C320 60 340 80 360 60" stroke="white" stroke-width="16" fill="none" stroke-linecap="round"/>
  <path d="M200 130C200 130 220 150 240 130C260 110 280 130 300 110C320 90 340 110 360 90" stroke="white" stroke-width="16" fill="none" stroke-linecap="round"/>
  <path d="M200 160C200 160 220 180 240 160C260 140 280 160 300 140C320 120 340 140 360 120" stroke="white" stroke-width="16" fill="none" stroke-linecap="round"/>
  <path d="M200 190C200 190 220 210 240 190C260 170 280 190 300 170C320 150 340 170 360 150" stroke="white" stroke-width="16" fill="none" stroke-linecap="round"/>
  <path d="M200 220C200 220 220 240 240 220C260 200 280 220 300 200C320 180 340 200 360 180" stroke="white" stroke-width="16" fill="none" stroke-linecap="round"/>
  <path d="M200 250C200 250 220 270 240 250C260 230 280 250 300 230C320 210 340 230 360 210" stroke="white" stroke-width="16" fill="none" stroke-linecap="round"/>
  <path d="M200 280C200 280 220 300 240 280C260 260 280 280 300 260C320 240 340 260 360 240" stroke="white" stroke-width="16" fill="none" stroke-linecap="round"/>
</svg>
